<svg width="12" height="9" viewBox="0 0 12 9" fill="none" xmlns="http://www.w3.org/2000/svg">
<path d="M6.64802 8.77821L10.821 5.03021C11.1347 4.74821 11.1347 4.24921 10.821 3.96621L6.64802 0.218214C6.32216 -0.0737858 5.79569 -0.0727854 5.47204 0.221214C5.1484 0.515214 5.1484 0.989213 5.47426 1.28221L8.21969 3.74921L1.176 3.74921C0.71603 3.74921 0.344727 4.08521 0.344727 4.49921C0.344727 4.91321 0.71603 5.24921 1.176 5.24921L8.21969 5.24921L5.47426 7.71521C5.31133 7.86221 5.23042 8.05421 5.23042 8.24721C5.23042 8.43821 5.31133 8.63021 5.47204 8.77621C5.79569 9.06921 6.32216 9.07021 6.64802 8.77821Z" fill="white"/>
</svg>
