<svg width="52" height="52" viewBox="0 0 52 52" fill="none" xmlns="http://www.w3.org/2000/svg">
<path opacity="0.4" d="M43.3172 41.0654H30.9796C29.7759 41.0654 28.7969 42.06 28.7969 43.2827C28.7969 44.5079 29.7759 45.5001 30.9796 45.5001H43.3172C44.521 45.5001 45.5 44.5079 45.5 43.2827C45.5 42.06 44.521 41.0654 43.3172 41.0654Z" fill="#0E4197"/>
<path d="M22.3362 14.9585L34.0272 24.4053C34.3093 24.6313 34.3574 25.0458 34.1373 25.3346L20.2773 43.3945C19.406 44.5102 18.122 45.1414 16.7463 45.1647L9.18008 45.2578C8.77655 45.2625 8.42345 44.983 8.33174 44.5824L6.61214 37.106C6.31407 35.7318 6.61214 34.311 7.4834 33.2163L21.4122 15.0703C21.6369 14.7791 22.0519 14.7279 22.3362 14.9585Z" fill="#0E4197"/>
<path opacity="0.4" d="M39.2608 18.7751L37.007 21.5887C36.78 21.8752 36.3719 21.9217 36.0898 21.6935C33.3499 19.4762 26.3339 13.7862 24.3874 12.2094C24.103 11.9765 24.0641 11.5619 24.2933 11.2731L26.4669 8.57362C28.4387 6.0349 31.878 5.80199 34.6523 8.01464L37.8393 10.5534C39.1462 11.5782 40.0174 12.9291 40.3155 14.3498C40.6594 15.9126 40.2926 17.4475 39.2608 18.7751Z" fill="#0E4197"/>
</svg>
