<svg width="192" height="192" viewBox="0 0 192 192" fill="none" xmlns="http://www.w3.org/2000/svg">
    <g opacity="0.1">
        <path fill-rule="evenodd" clip-rule="evenodd"
              d="M121.942 37.901C121.942 55.6689 136.367 70.0727 154.161 70.0727C156.121 70.063 158.075 69.8749 160 69.5107V133.292C160 160.125 144.172 176 117.3 176H58.771C31.8282 176 16.0001 160.125 16.0001 133.292V74.8493C16.0001 48.0161 31.8282 32.0005 58.771 32.0005H122.505C122.127 33.9445 121.939 35.9206 121.942 37.901ZM105.2 119.173L128.063 89.6708V89.5303C130.02 86.9003 129.52 83.1917 126.937 81.1713C125.687 80.206 124.098 79.7882 122.533 80.0132C120.969 80.2383 119.563 81.087 118.636 82.3654L99.361 107.162L77.4128 89.8815C76.1597 88.9053 74.5657 88.4743 72.9905 88.6857C71.4153 88.8972 69.9919 89.7334 69.0415 91.0054L45.405 121.491C44.5742 122.527 44.1269 123.817 44.1388 125.144C44.0016 127.826 45.695 130.262 48.259 131.071C50.8231 131.88 53.611 130.859 55.0425 128.586L74.81 103.017L96.7582 120.227C98.0065 121.233 99.6111 121.69 101.203 121.491C102.795 121.292 104.238 120.456 105.2 119.173Z"
              fill="#0E4197"/>
        <ellipse opacity="0.4" cx="156" cy="36.0002" rx="20" ry="20" fill="#0E4197"/>
    </g>
</svg>
