<svg width="27" height="26" viewBox="0 0 27 26" fill="none" xmlns="http://www.w3.org/2000/svg">
<path opacity="0.4" d="M16.6708 4.53678C16.0431 4.42246 15.4667 4.81739 15.3472 5.42148C15.2277 6.02556 15.6295 6.61536 16.2401 6.73358C18.0783 7.08693 19.4977 8.48997 19.8575 10.3087V10.31C19.9599 10.8336 20.4273 11.2142 20.9657 11.2142C21.0379 11.2142 21.1101 11.2077 21.1837 11.1947C21.7942 11.0739 22.196 10.4854 22.0765 9.88002C21.5395 7.16358 19.4189 5.06552 16.6708 4.53678Z" fill="#0E4197"/>
<path opacity="0.4" d="M16.5872 0.0103087C16.2931 -0.0312628 15.9977 0.0544784 15.7626 0.238952C15.521 0.426023 15.37 0.696238 15.3372 0.99893C15.2676 1.61081 15.7154 2.16423 16.3351 2.23308C20.609 2.70336 23.931 5.98621 24.4116 10.2135C24.4759 10.7799 24.9578 11.2073 25.5329 11.2073C25.5763 11.2073 25.6183 11.2047 25.6616 11.1995C25.9623 11.167 26.2302 11.0202 26.4192 10.7864C26.607 10.5526 26.6923 10.2616 26.6582 9.96407C26.0595 4.6897 21.9195 0.596206 16.5872 0.0103087Z" fill="#0E4197"/>
<path d="M20.8727 16.4752C20.0179 16.2959 19.3417 16.6857 18.7429 17.026C18.1297 17.3768 16.9624 18.3056 16.2954 18.0666C12.8736 16.6844 9.65539 13.7419 8.26225 10.3694C8.01672 9.69775 8.95816 8.54545 9.31137 7.93746C9.6567 7.34767 10.0454 6.67603 9.8681 5.83161C9.70791 5.07163 7.63594 2.48251 6.90326 1.7745C6.41875 1.30682 5.92505 1.04959 5.4169 1.00672C3.50644 0.927477 1.37275 3.43086 0.998537 4.02975C0.0597161 5.30677 0.0662814 7.006 1.01429 9.06639C3.29898 14.6006 11.9401 22.9525 17.5966 25.2806C18.6392 25.7599 19.5951 26.0003 20.4525 26.0003C21.2915 26.0003 22.0386 25.7703 22.6807 25.3143C23.1639 25.0402 25.8189 22.8408 25.748 20.9142C25.7073 20.4232 25.446 19.9321 24.9759 19.4567C24.259 18.7305 21.6408 16.635 20.8727 16.4752Z" fill="#0E4197"/>
</svg>
