<svg width="34" height="34" viewBox="0 0 34 34" fill="none" xmlns="http://www.w3.org/2000/svg">
    <path opacity="0.4"
          d="M24.7925 0.333496H9.22214C3.54807 0.333496 0.333252 3.54831 0.333252 9.22239V24.7779C0.333252 30.452 3.54807 33.6668 9.22214 33.6668H24.7925C30.4666 33.6668 33.6666 30.452 33.6666 24.7779V9.22239C33.6666 3.54831 30.4666 0.333496 24.7925 0.333496Z"
          fill="#0E4197"/>
    <path d="M9.2811 12.6152C8.52554 12.6152 7.90332 13.2375 7.90332 14.0078V25.4597C7.90332 26.2152 8.52554 26.8375 9.2811 26.8375C10.0515 26.8375 10.6737 26.2152 10.6737 25.4597V14.0078C10.6737 13.2375 10.0515 12.6152 9.2811 12.6152Z"
          fill="#0E4197"/>
    <path d="M17.0589 7.14844C16.3034 7.14844 15.6812 7.77066 15.6812 8.54103V25.4595C15.6812 26.2151 16.3034 26.8373 17.0589 26.8373C17.8293 26.8373 18.4515 26.2151 18.4515 25.4595V8.54103C18.4515 7.77066 17.8293 7.14844 17.0589 7.14844Z"
          fill="#0E4197"/>
    <path d="M24.7332 18.6597C23.9628 18.6597 23.3406 19.2819 23.3406 20.0523V25.4597C23.3406 26.2152 23.9628 26.8374 24.7184 26.8374C25.4887 26.8374 26.111 26.2152 26.111 25.4597V20.0523C26.111 19.2819 25.4887 18.6597 24.7332 18.6597Z"
          fill="#0E4197"/>
</svg>
