<svg width="192" height="192" viewBox="0 0 192 192" fill="none" xmlns="http://www.w3.org/2000/svg">
    <g opacity="0.1">
        <path opacity="0.4"
              d="M133.404 16.0007H58.6664C31.4308 16.0007 15.9997 31.4318 15.9997 58.6674V133.334C15.9997 160.57 31.4308 176.001 58.6664 176.001H133.404C160.64 176.001 176 160.57 176 133.334V58.6674C176 31.4318 160.64 16.0007 133.404 16.0007Z"
              fill="#0E4197"/>
        <path d="M58.9494 74.9529C55.3227 74.9529 52.336 77.9395 52.336 81.6373V136.606C52.336 140.233 55.3227 143.22 58.9494 143.22C62.6471 143.22 65.6338 140.233 65.6338 136.606V81.6373C65.6338 77.9395 62.6471 74.9529 58.9494 74.9529Z"
              fill="#0E4197"/>
        <path d="M96.2829 48.7124C92.6563 48.7124 89.6696 51.6991 89.6696 55.3968V136.606C89.6696 140.232 92.6563 143.219 96.2829 143.219C99.9807 143.219 102.967 140.232 102.967 136.606V55.3968C102.967 51.6991 99.9807 48.7124 96.2829 48.7124Z"
              fill="#0E4197"/>
        <path d="M133.119 103.966C129.421 103.966 126.435 106.953 126.435 110.651V136.606C126.435 140.233 129.421 143.22 133.048 143.22C136.746 143.22 139.733 140.233 139.733 136.606V110.651C139.733 106.953 136.746 103.966 133.119 103.966Z"
              fill="#0E4197"/>
    </g>
</svg>
