<svg width="28" height="28" viewBox="0 0 28 28" fill="none" xmlns="http://www.w3.org/2000/svg">
    <path fill-rule="evenodd" clip-rule="evenodd"
          d="M8.61892 15.7386C7.81297 15.7386 7.1582 15.0839 7.1582 14.2779C7.1582 13.4743 7.81297 12.8196 8.61892 12.8196C9.42487 12.8196 10.0796 13.4743 10.0796 14.2779C10.0796 15.0839 9.42487 15.7386 8.61892 15.7386ZM14.2975 15.7386C13.4915 15.7386 12.8368 15.0839 12.8368 14.2779C12.8368 13.4743 13.4915 12.8196 14.2975 12.8196C15.1034 12.8196 15.7582 13.4743 15.7582 14.2779C15.7582 15.0839 15.1034 15.7386 14.2975 15.7386ZM18.5155 14.2779C18.5155 15.0839 19.1702 15.7386 19.9762 15.7386C20.7821 15.7386 21.4369 15.0839 21.4369 14.2779C21.4369 13.4743 20.7821 12.8196 19.9762 12.8196C19.1702 12.8196 18.5155 13.4743 18.5155 14.2779Z"
          fill="white"/>
    <path fill-rule="evenodd" clip-rule="evenodd"
          d="M14.025 1.5C6.7625 1.5 1.5 7.43265 1.5 14.0188C1.5 16.1219 2.1125 18.2864 3.1875 20.2644C3.3875 20.5911 3.4125 21.003 3.275 21.3923L2.4375 24.1965C2.25 24.8726 2.825 25.3721 3.4625 25.1718L5.9875 24.4219C6.675 24.1965 7.2125 24.4832 7.85 24.8726C9.675 25.9479 11.95 26.5 14 26.5C20.2 26.5 26.5 21.7053 26.5 13.9812C26.5 7.31998 21.125 1.5 14.025 1.5Z"
          stroke="white" stroke-width="1.5" stroke-linecap="round" stroke-linejoin="round"/>
</svg>
