<svg width="192" height="192" viewBox="0 0 192 192" fill="none" xmlns="http://www.w3.org/2000/svg">
    <g opacity="0.1">
        <path opacity="0.4"
              d="M95.9926 175.985C89.8406 175.985 83.6966 173.649 79.0006 168.985L73.1606 163.145C70.8966 160.889 67.8646 159.641 64.6486 159.633H56.4326C43.1526 159.633 32.3446 148.825 32.3446 135.545V127.321C32.3366 124.113 31.0886 121.081 28.8246 118.801L23.0806 113.065C13.6726 103.713 13.6326 88.4252 22.9926 79.0092L28.8326 73.1612C31.0886 70.8972 32.3366 67.8652 32.3446 64.6492V56.4412C32.3446 43.1532 43.1526 32.3452 56.4326 32.3452H64.6566C67.8646 32.3452 70.8886 31.0972 73.1686 28.8172L78.9206 23.0812C88.2726 13.6732 103.553 13.6252 112.977 22.9932L118.817 28.8332C121.089 31.0972 124.113 32.3452 127.321 32.3452H135.545C148.825 32.3452 159.633 43.1532 159.633 56.4412V64.6572C159.641 67.8652 160.889 70.8972 163.153 73.1772L168.897 78.9212C173.449 83.4492 175.969 89.4812 175.993 95.9212C176.009 102.321 173.545 108.345 169.057 112.897C168.977 112.977 168.905 113.065 168.825 113.137L163.145 118.817C160.889 121.081 159.641 124.113 159.633 127.329V135.545C159.633 148.825 148.825 159.633 135.545 159.633H127.321C124.113 159.641 121.081 160.889 118.809 163.153L113.057 168.897C108.369 173.617 102.177 175.985 95.9926 175.985"
              fill="#0E4197"/>
        <path fill-rule="evenodd" clip-rule="evenodd"
              d="M80.3421 80.4066C79.0221 81.7266 77.3101 82.4386 75.4141 82.4386C73.6381 82.4386 71.8941 81.7106 70.4941 80.3986C69.1661 79.0786 68.4141 77.2706 68.4141 75.4386C68.4141 73.6946 69.1501 71.9026 70.4461 70.5186C71.1581 69.7986 72.0061 69.2546 72.8541 68.9666C75.2701 67.8626 78.4781 68.5106 80.3821 70.5106C81.0621 71.1906 81.5821 71.9346 81.9261 72.7106C82.3021 73.5426 82.4941 74.4866 82.4941 75.4386C82.4941 77.3426 81.7341 79.1106 80.3421 80.4066ZM121.525 70.4787C118.797 67.7587 114.357 67.7587 111.629 70.4787L70.5092 111.599C67.7812 114.327 67.7812 118.767 70.5092 121.503C71.8372 122.823 73.5892 123.551 75.4612 123.551C77.3332 123.551 79.0852 122.823 80.4052 121.503L121.525 80.3827C124.253 77.6467 124.253 73.2147 121.525 70.4787ZM119.246 110.11C116.654 109.022 113.582 109.614 111.534 111.662C111.11 112.158 110.51 112.926 110.102 113.83C109.67 114.806 109.614 115.854 109.614 116.558C109.614 117.262 109.67 118.302 110.102 119.278C110.502 120.174 110.982 120.902 111.614 121.534C113.062 122.878 114.742 123.558 116.614 123.558C118.39 123.558 120.134 122.838 121.566 121.502C122.838 120.23 123.534 118.47 123.534 116.558C123.534 114.638 122.838 112.886 121.558 111.606C120.854 110.91 120.006 110.366 119.246 110.11Z"
              fill="#0E4197"/>
    </g>
</svg>
