<svg width="40" height="40" viewBox="0 0 40 40" fill="none" xmlns="http://www.w3.org/2000/svg">
    <path opacity="0.4"
          d="M19.9984 36.6636C18.7168 36.6636 17.4368 36.1769 16.4584 35.2052L15.2418 33.9886C14.7701 33.5186 14.1384 33.2586 13.4684 33.2569H11.7568C8.99011 33.2569 6.73844 31.0052 6.73844 28.2386V26.5252C6.73678 25.8569 6.47678 25.2252 6.00511 24.7502L4.80844 23.5552C2.84844 21.6069 2.84011 18.4219 4.79011 16.4602L6.00678 15.2419C6.47678 14.7702 6.73678 14.1386 6.73844 13.4686V11.7586C6.73844 8.99025 8.99011 6.73858 11.7568 6.73858H13.4701C14.1384 6.73858 14.7684 6.47858 15.2434 6.00358L16.4418 4.80858C18.3901 2.84858 21.5734 2.83858 23.5368 4.79025L24.7534 6.00691C25.2268 6.47858 25.8568 6.73858 26.5251 6.73858H28.2384C31.0051 6.73858 33.2568 8.99025 33.2568 11.7586V13.4702C33.2584 14.1386 33.5184 14.7702 33.9901 15.2452L35.1868 16.4419C36.1351 17.3852 36.6601 18.6419 36.6651 19.9836C36.6684 21.3169 36.1551 22.5719 35.2201 23.5202C35.2034 23.5369 35.1884 23.5552 35.1718 23.5702L33.9884 24.7536C33.5184 25.2252 33.2584 25.8569 33.2568 26.5269V28.2386C33.2568 31.0052 31.0051 33.2569 28.2384 33.2569H26.5251C25.8568 33.2586 25.2251 33.5186 24.7518 33.9902L23.5534 35.1869C22.5768 36.1702 21.2868 36.6636 19.9984 36.6636Z"
          fill="#0E4197"/>
    <path fill-rule="evenodd" clip-rule="evenodd"
          d="M16.7379 16.7516C16.4629 17.0266 16.1063 17.175 15.7113 17.175C15.3413 17.175 14.9779 17.0233 14.6863 16.75C14.4096 16.475 14.2529 16.0983 14.2529 15.7166C14.2529 15.3533 14.4063 14.98 14.6763 14.6916C14.8246 14.5416 15.0013 14.4283 15.1779 14.3683C15.6813 14.1383 16.3496 14.2733 16.7463 14.69C16.8879 14.8316 16.9963 14.9866 17.0679 15.1483C17.1463 15.3216 17.1863 15.5183 17.1863 15.7166C17.1863 16.1133 17.0279 16.4816 16.7379 16.7516ZM25.3176 14.6833C24.7493 14.1167 23.8243 14.1167 23.256 14.6833L14.6893 23.25C14.121 23.8183 14.121 24.7433 14.6893 25.3133C14.966 25.5883 15.331 25.74 15.721 25.74C16.111 25.74 16.476 25.5883 16.751 25.3133L25.3176 16.7467C25.886 16.1767 25.886 15.2533 25.3176 14.6833ZM24.8429 22.9399C24.3029 22.7133 23.6629 22.8366 23.2363 23.2633C23.1479 23.3666 23.0229 23.5266 22.9379 23.7149C22.8479 23.9183 22.8363 24.1366 22.8363 24.2833C22.8363 24.4299 22.8479 24.6466 22.9379 24.8499C23.0213 25.0366 23.1213 25.1883 23.2529 25.3199C23.5546 25.5999 23.9046 25.7416 24.2946 25.7416C24.6646 25.7416 25.0279 25.5916 25.3263 25.3133C25.5913 25.0483 25.7363 24.6816 25.7363 24.2833C25.7363 23.8833 25.5913 23.5183 25.3246 23.2516C25.1779 23.1066 25.0013 22.9933 24.8429 22.9399Z"
          fill="#0E4197"/>
</svg>
