<svg width="34" height="34" viewBox="0 0 34 34" fill="none" xmlns="http://www.w3.org/2000/svg">
    <path opacity="0.4"
          d="M16.9984 33.6636C15.7168 33.6636 14.4368 33.1769 13.4584 32.2052L12.2418 30.9886C11.7701 30.5186 11.1384 30.2586 10.4684 30.2569H8.75678C5.99011 30.2569 3.73844 28.0052 3.73844 25.2386V23.5252C3.73678 22.8569 3.47678 22.2252 3.00511 21.7502L1.80844 20.5552C-0.151559 18.6069 -0.159892 15.4219 1.79011 13.4602L3.00678 12.2419C3.47678 11.7702 3.73678 11.1386 3.73844 10.4686V8.75858C3.73844 5.99025 5.99011 3.73858 8.75678 3.73858H10.4701C11.1384 3.73858 11.7684 3.47858 12.2434 3.00358L13.4418 1.80858C15.3901 -0.15142 18.5734 -0.16142 20.5368 1.79025L21.7534 3.00691C22.2268 3.47858 22.8568 3.73858 23.5251 3.73858H25.2384C28.0051 3.73858 30.2568 5.99025 30.2568 8.75858V10.4702C30.2584 11.1386 30.5184 11.7702 30.9901 12.2452L32.1868 13.4419C33.1351 14.3852 33.6601 15.6419 33.6651 16.9836C33.6684 18.3169 33.1551 19.5719 32.2201 20.5202C32.2034 20.5369 32.1884 20.5552 32.1718 20.5702L30.9884 21.7536C30.5184 22.2252 30.2584 22.8569 30.2568 23.5269V25.2386C30.2568 28.0052 28.0051 30.2569 25.2384 30.2569H23.5251C22.8568 30.2586 22.2251 30.5186 21.7518 30.9902L20.5534 32.1869C19.5768 33.1702 18.2868 33.6636 16.9984 33.6636Z"
          fill="#0E4197"/>
</svg>
