<svg width="20" height="13" viewBox="0 0 20 13" fill="none" xmlns="http://www.w3.org/2000/svg">
    <path opacity="0.4"
          d="M20 7.94C20 10.73 17.76 12.99 14.97 13H14.96H5.05C2.27 13 0 10.75 0 7.96V7.95C0 7.95 0.006 3.524 0.014 1.298C0.015 0.88 0.495 0.646 0.822 0.906C3.198 2.791 7.447 6.228 7.5 6.273C8.21 6.842 9.11 7.163 10.03 7.163C10.95 7.163 11.85 6.842 12.56 6.262C12.613 6.227 16.767 2.893 19.179 0.977C19.507 0.716 19.989 0.95 19.99 1.367C20 3.576 20 7.94 20 7.94Z"
          fill="#0E4197"/>
</svg>
