<svg width="18" height="14" viewBox="0 0 18 14" fill="none" xmlns="http://www.w3.org/2000/svg">
    <path fill-rule="evenodd" clip-rule="evenodd"
          d="M4.7688 0.713867H13.2312C15.5886 0.713867 17.5 2.58307 17.5 4.88853V9.82537C17.5 12.1308 15.5886 14 13.2312 14H4.7688C2.41136 14 0.5 12.1308 0.5 9.82537V4.88853C0.5 2.58307 2.41136 0.713867 4.7688 0.713867ZM8.99492 9.3295C9.49283 9.3295 9.88912 8.94195 9.88912 8.45502V6.24894C9.88912 5.77195 9.49283 5.3844 8.99492 5.3844C8.50717 5.3844 8.11088 5.77195 8.11088 6.24894V8.45502C8.11088 8.94195 8.50717 9.3295 8.99492 9.3295Z"
          fill="#0E4197"/>
</svg>
