<svg width="192" height="192" viewBox="0 0 192 192" fill="none" xmlns="http://www.w3.org/2000/svg">
    <g opacity="0.1">
        <path d="M81.2217 44.4445C81.6291 45.2738 81.8982 46.1619 82.0187 47.0749L84.2462 80.1943V80.1943L85.3519 96.8409C85.3633 98.5527 85.6319 100.254 86.149 101.889C87.4844 105.061 90.6969 107.077 94.192 106.936L147.45 103.453C149.756 103.415 151.984 104.277 153.642 105.85C155.023 107.162 155.915 108.877 156.196 110.722L156.29 111.842C154.087 142.359 131.673 167.813 101.218 174.384C70.7641 180.955 39.5345 167.075 24.4853 140.279C20.1467 132.495 17.4368 123.938 16.5147 115.112C16.1295 112.499 15.9598 109.86 16.0075 107.221C15.9599 74.5021 39.2594 46.2159 71.8743 39.3968C75.7997 38.7856 79.6478 40.8636 81.2217 44.4445Z"
              fill="#0E4197"/>
        <path opacity="0.4"
              d="M102.96 16.0063C139.439 16.9344 170.099 43.1661 176 78.4981L175.944 78.7588V78.7588L175.783 79.1379L175.805 80.1786C175.721 81.5575 175.189 82.8841 174.272 83.9556C173.316 85.0718 172.011 85.832 170.573 86.127L169.696 86.2473L108.25 90.2286C106.206 90.4302 104.171 89.7711 102.651 88.4154C101.384 87.2856 100.574 85.7605 100.346 84.1172L96.2213 22.7603C96.1495 22.5528 96.1495 22.3279 96.2213 22.1204C96.2777 20.4291 97.0221 18.8305 98.2884 17.6816C99.5547 16.5327 101.237 15.9294 102.96 16.0063Z"
              fill="#0E4197"/>
    </g>
</svg>
