<svg width="34" height="34" viewBox="0 0 34 34" fill="none" xmlns="http://www.w3.org/2000/svg">
    <path d="M13.9212 6.25923C14.0061 6.43201 14.0621 6.61703 14.0872 6.80725L14.5513 13.7071L14.7816 17.1751C14.784 17.5318 14.84 17.8861 14.9477 18.2267C15.2259 18.8876 15.8952 19.3076 16.6233 19.2783L27.7188 18.5526C28.1993 18.5447 28.6632 18.7244 29.0086 19.0522C29.2965 19.3253 29.4823 19.6826 29.5409 20.0669L29.5605 20.3003C29.1014 26.6582 24.4318 31.9611 18.0872 33.33C11.7425 34.6989 5.23636 31.8072 2.1011 26.2248C1.19723 24.603 0.632669 22.8204 0.440555 20.9816C0.3603 20.4373 0.324961 19.8875 0.334884 19.3376C0.324975 12.5212 5.17904 6.62828 11.9738 5.20763C12.7916 5.08029 13.5933 5.51322 13.9212 6.25923Z"
          fill="#0E4197"/>
    <path opacity="0.4"
          d="M18.45 0.334861C26.0498 0.528207 32.4372 5.99314 33.6667 13.354L33.6549 13.4083L33.6214 13.4873L33.6261 13.7041C33.6087 13.9913 33.4978 14.2677 33.3066 14.491C33.1075 14.7235 32.8355 14.8819 32.536 14.9433L32.3533 14.9684L19.552 15.7978C19.1262 15.8398 18.7023 15.7025 18.3856 15.4201C18.1217 15.1847 17.953 14.867 17.9054 14.5246L17.0461 1.74193C17.0312 1.69871 17.0312 1.65185 17.0461 1.60863C17.0579 1.25628 17.213 0.923229 17.4768 0.683879C17.7406 0.444529 18.0911 0.318829 18.45 0.334861Z"
          fill="#0E4197"/>
</svg>
