<svg width="24" height="24" viewBox="0 0 24 24" fill="none" xmlns="http://www.w3.org/2000/svg">
    <path d="M8.81567 7.54181C8.81567 8.24572 8.37992 8.81555 7.54193 8.81555C6.77098 8.81555 6.26819 8.24572 6.26819 7.60885C6.26819 6.90494 6.77098 6.26807 7.54193 6.26807C8.31288 6.26807 8.81567 6.87142 8.81567 7.54181Z"
          fill="white"/>
    <path d="M8.81567 9.45264H6.26819V17.732H8.81567V9.45264Z" fill="white"/>
    <path d="M14.9498 9.58643C13.609 9.58643 12.838 10.3574 12.5364 10.8602H12.4693L12.3352 9.78754H10.0559C10.0559 10.4915 10.1229 11.3294 10.1229 12.268V17.7317H12.6704V13.2065C12.6704 12.9384 12.6704 12.7708 12.7375 12.5697C12.9386 12.1339 13.2403 11.5641 13.9442 11.5641C14.8492 11.5641 15.2179 12.335 15.2179 13.3406V17.7317H17.7654V13.0389C17.7319 10.6591 16.5252 9.58643 14.9498 9.58643Z"
          fill="white"/>
    <path d="M19.1062 22.8296H4.89387C2.82365 22.8296 1.17041 21.1764 1.17041 19.1062V4.89387C1.17041 2.82365 2.82365 1.17041 4.89387 1.17041H19.1062C21.1764 1.17041 22.8296 2.82365 22.8296 4.89387V19.1062C22.8296 21.1764 21.1764 22.8296 19.1062 22.8296Z"
          stroke="white" stroke-miterlimit="10" stroke-linecap="round" stroke-linejoin="round"/>
</svg>
