<svg width="42" height="40" viewBox="0 0 42 40" fill="none" xmlns="http://www.w3.org/2000/svg">
    <path d="M8.21544 20.0018C8.21544 13.3538 13.7825 8.00291 20.5927 8.00291C21.1331 8.00291 21.6736 8.05696 22.2141 8.11101L26.5921 0.868445C24.7004 0.327956 22.7006 0.00366211 20.6467 0.00366211C9.24237 0.00366211 0 8.97579 0 20.0018C0 25.731 2.4322 30.8656 6.37778 34.4869L10.7557 27.2443C9.13428 25.1364 8.21544 22.6502 8.21544 20.0018ZM8.21544 20.0018C8.21544 13.3538 13.7825 8.00291 20.5927 8.00291C21.1331 8.00291 21.6736 8.05696 22.2141 8.11101L26.5921 0.868445C24.7004 0.327956 22.7006 0.00366211 20.6467 0.00366211C9.24237 0.00366211 0 8.97579 0 20.0018C0 25.731 2.4322 30.8656 6.37778 34.4869L10.7557 27.2443C9.13428 25.1364 8.21544 22.6502 8.21544 20.0018ZM34.3751 5.08426C38.591 8.75959 41.2394 14.0564 41.2394 20.0018C41.2394 31.0818 31.997 39.9999 20.5927 39.9999C18.3226 39.9999 16.1606 39.6216 14.1068 38.973L18.4307 31.7845C19.1333 31.8926 19.89 31.9466 20.6467 31.9466C27.5109 31.9466 33.0239 26.5417 33.0239 19.9477C33.0239 17.0831 31.997 14.3807 30.1593 12.2187L34.3751 5.08426ZM34.3751 5.08426C38.591 8.75959 41.2394 14.0564 41.2394 20.0018C41.2394 31.0818 31.997 39.9999 20.5927 39.9999C18.3226 39.9999 16.1606 39.6216 14.1068 38.973L18.4307 31.7845C19.1333 31.8926 19.89 31.9466 20.6467 31.9466C27.5109 31.9466 33.0239 26.5417 33.0239 19.9477C33.0239 17.0831 31.997 14.3807 30.1593 12.2187L34.3751 5.08426Z"
          fill="white"/>
</svg>
