<svg width="30" height="30" viewBox="0 0 30 30" fill="none" xmlns="http://www.w3.org/2000/svg">
    <path d="M11.3215 25.9643V22.1308C11.3215 21.1558 12.1164 20.3635 13.1013 20.357H16.7089C17.6984 20.357 18.5006 21.1512 18.5006 22.1308V22.1308V25.9762C18.5004 26.804 19.1678 27.4806 20.0038 27.5H22.4089C24.8064 27.5 26.75 25.5758 26.75 23.2023V23.2023V12.2973C26.7372 11.3635 26.2943 10.4867 25.5475 9.91629L17.3222 3.35663C15.8812 2.21446 13.8328 2.21446 12.3918 3.35663L4.20253 9.9282C3.45282 10.4963 3.00923 11.3746 3 12.3092V23.2023C3 25.5758 4.94359 27.5 7.34114 27.5H9.7462C10.6029 27.5 11.2975 26.8124 11.2975 25.9643V25.9643"
          stroke="white" stroke-width="1.5" stroke-linecap="round" stroke-linejoin="round"/>
</svg>
