<svg width="28" height="26" viewBox="0 0 28 26" fill="none" xmlns="http://www.w3.org/2000/svg">
    <path d="M6.20193 13.0074C6.20193 8.69499 9.81312 5.22405 14.2307 5.22405C14.5813 5.22405 14.9319 5.25911 15.2825 5.29417L18.1224 0.596117C16.8952 0.245516 15.598 0.0351562 14.2657 0.0351562C6.86807 0.0351562 0.872803 5.85513 0.872803 13.0074C0.872803 16.7237 2.45051 20.0545 5.00989 22.4035L7.84976 17.7054C6.79795 16.3381 6.20193 14.7253 6.20193 13.0074ZM6.20193 13.0074C6.20193 8.69499 9.81312 5.22405 14.2307 5.22405C14.5813 5.22405 14.9319 5.25911 15.2825 5.29417L18.1224 0.596117C16.8952 0.245516 15.598 0.0351562 14.2657 0.0351562C6.86807 0.0351562 0.872803 5.85513 0.872803 13.0074C0.872803 16.7237 2.45051 20.0545 5.00989 22.4035L7.84976 17.7054C6.79795 16.3381 6.20193 14.7253 6.20193 13.0074ZM23.171 3.3308C25.9057 5.71489 27.6236 9.15077 27.6236 13.0074C27.6236 20.1947 21.6284 25.9796 14.2307 25.9796C12.7582 25.9796 11.3558 25.7342 10.0235 25.3135L12.8283 20.6505C13.2841 20.7206 13.7749 20.7557 14.2657 20.7557C18.7184 20.7557 22.2945 17.2496 22.2945 12.9723C22.2945 11.1141 21.6284 9.36113 20.4363 7.95873L23.171 3.3308ZM23.171 3.3308C25.9057 5.71489 27.6236 9.15077 27.6236 13.0074C27.6236 20.1947 21.6284 25.9796 14.2307 25.9796C12.7582 25.9796 11.3558 25.7342 10.0235 25.3135L12.8283 20.6505C13.2841 20.7206 13.7749 20.7557 14.2657 20.7557C18.7184 20.7557 22.2945 17.2496 22.2945 12.9723C22.2945 11.1141 21.6284 9.36113 20.4363 7.95873L23.171 3.3308Z"
          fill="#1E2128"/>
</svg>
