<svg width="31" height="31" viewBox="0 0 31 31" fill="none" xmlns="http://www.w3.org/2000/svg">
    <path fill-rule="evenodd" clip-rule="evenodd"
          d="M22.4046 1.89626C22.4046 5.59792 25.4098 8.5987 29.1168 8.5987C29.525 8.59669 29.9322 8.5575 30.3332 8.48163V21.7694C30.3332 27.3597 27.0357 30.667 21.4373 30.667H9.24385C3.63076 30.667 0.333252 27.3597 0.333252 21.7694V9.59382C0.333252 4.00358 3.63076 0.666992 9.24385 0.666992H22.5218C22.443 1.072 22.4038 1.48368 22.4046 1.89626ZM18.9165 18.828L23.6796 12.6816V12.6524C24.0873 12.1044 23.9833 11.3318 23.4451 10.9109C23.1846 10.7098 22.8536 10.6228 22.5277 10.6696C22.2018 10.7165 21.9088 10.8933 21.7157 11.1597L17.7001 16.3255L13.1276 12.7255C12.8665 12.5222 12.5344 12.4324 12.2062 12.4764C11.8781 12.5205 11.5815 12.6947 11.3835 12.9597L6.45927 19.3109C6.28618 19.5266 6.193 19.7954 6.19547 20.0719C6.16689 20.6306 6.51969 21.1381 7.05386 21.3067C7.58804 21.4753 8.16886 21.2625 8.46709 20.7889L12.5853 15.4621L17.1579 19.0475C17.4179 19.2572 17.7522 19.3522 18.0839 19.3108C18.4156 19.2694 18.7161 19.0951 18.9165 18.828Z"
          fill="#0E4197"/>
</svg>
