<svg width="30" height="29" viewBox="0 0 30 29" fill="none" xmlns="http://www.w3.org/2000/svg">
<g clip-path="url(#clip0)">
<path d="M2.27229 6.05249H27.3945C28.5709 6.05249 29.5391 7.00708 29.5391 8.16708V12.3963C29.5391 13.5563 28.5709 14.5108 27.3945 14.5108H27.0881H26.169H25.2499H15.7525H13.9143H4.41687H3.49776H2.57866H2.27229C1.09583 14.5108 0.127712 13.5563 0.127712 12.3963V8.16708C0.127712 7.00708 1.09583 6.05249 2.27229 6.05249Z" fill="#0E4197"/>
<path d="M26.1688 16.3235H27.0879V25.6881C27.0879 27.5247 25.5806 29.011 23.7178 29.011H15.7523V28.1047V27.1985V16.3235H25.2497H26.1688Z" fill="#0E4197"/>
<path d="M4.41665 16.3235H13.9141V27.1985V28.1047V29.011H5.94849C4.08577 29.011 2.57844 27.5247 2.57844 25.6881V16.3235H3.49754H4.41665Z" fill="#0E4197"/>
<path opacity="0.4" d="M9.04498 1.0995C10.2729 -0.110038 12.4114 -0.110038 13.6368 1.0995C14.0841 1.54055 14.4922 2.45646 14.8341 3.43038C15.176 2.45646 15.5841 1.54055 16.0314 1.0995C17.2569 -0.111246 19.3953 -0.110038 20.6233 1.0995C21.2372 1.70367 21.5742 2.50721 21.5742 3.36272C21.5742 4.21822 21.2372 5.02297 20.6233 5.62714C19.6037 6.63247 16.0865 7.46139 15.0326 7.69097C14.9665 7.70668 14.9003 7.71393 14.8341 7.71393C14.7679 7.71393 14.7018 7.70668 14.6356 7.69218C13.5829 7.4626 10.0658 6.63247 9.04498 5.62834C8.43101 5.02418 8.09401 4.21943 8.09401 3.36392C8.09401 2.50842 8.43101 1.70367 9.04498 1.0995ZM19.323 4.3463C19.589 4.08409 19.736 3.73488 19.736 3.36272C19.736 2.99055 19.5902 2.64376 19.323 2.38034C19.0559 2.11692 18.7029 1.97434 18.3267 1.97434C17.9505 1.97434 17.5963 2.11934 17.3316 2.38034C17.0069 2.70055 16.5044 4.09013 16.0951 5.5643C17.589 5.16072 18.9983 4.66651 19.323 4.3463ZM10.3452 4.3463C10.67 4.6653 12.0793 5.16072 13.5743 5.5643C13.165 4.09013 12.6626 2.70055 12.3378 2.38034C12.0719 2.11813 11.7177 1.97434 11.3427 1.97434C10.9653 1.97434 10.6124 2.11934 10.3464 2.38155C10.0805 2.64376 9.93222 2.99176 9.93222 3.36272C9.93222 3.73367 10.0793 4.08409 10.3452 4.3463Z" fill="#0E4197"/>
</g>
<defs>
<clipPath id="clip0">
<rect width="29.4113" height="29" fill="white" transform="matrix(-1 0 0 1 29.5391 0)"/>
</clipPath>
</defs>
</svg>
