<svg width="24" height="26" viewBox="0 0 24 26" fill="none" xmlns="http://www.w3.org/2000/svg">
    <path fill-rule="evenodd" clip-rule="evenodd"
          d="M22.9101 7.68192L22.1321 6.33181C21.4739 5.18941 20.0152 4.79531 18.8712 5.4508V5.4508C18.3267 5.77158 17.6769 5.8626 17.0652 5.70376C16.4535 5.54493 15.93 5.1493 15.6103 4.60412C15.4047 4.25759 15.2942 3.8629 15.29 3.45995V3.45995C15.3085 2.81393 15.0648 2.18791 14.6143 1.72449C14.1638 1.26108 13.545 0.999734 12.8987 1H11.3312C10.698 0.999993 10.0909 1.2523 9.64429 1.70109C9.19765 2.14987 8.94826 2.75815 8.95131 3.3913V3.3913C8.93254 4.69856 7.86739 5.74842 6.56 5.74828C6.15706 5.7441 5.76237 5.63359 5.41584 5.42792V5.42792C4.27187 4.77242 2.81319 5.16652 2.15497 6.30892L1.31973 7.68192C0.662307 8.8229 1.05104 10.2807 2.18929 10.9428V10.9428C2.92917 11.37 3.38496 12.1594 3.38496 13.0137C3.38496 13.8681 2.92917 14.6575 2.18929 15.0847V15.0847C1.05249 15.7423 0.663328 17.1966 1.31973 18.3341V18.3341L2.1092 19.6957C2.4176 20.2521 2.93505 20.6628 3.54704 20.8367C4.15902 21.0106 4.81509 20.9335 5.37007 20.6224V20.6224C5.91564 20.3041 6.56578 20.2169 7.17597 20.3802C7.78616 20.5434 8.30584 20.9437 8.6195 21.492C8.82517 21.8385 8.93568 22.2332 8.93986 22.6362V22.6362C8.93986 23.9568 10.0105 25.0275 11.3312 25.0275H12.8987C14.2149 25.0275 15.2837 23.9638 15.29 22.6476V22.6476C15.2869 22.0125 15.5379 21.4024 15.987 20.9533C16.4361 20.5042 17.0461 20.2532 17.6813 20.2563C18.0833 20.2671 18.4763 20.3771 18.8254 20.5767V20.5767C19.9664 21.2341 21.4242 20.8453 22.0863 19.7071V19.7071L22.9101 18.3341C23.229 17.7868 23.3165 17.1349 23.1533 16.5229C22.9901 15.9108 22.5896 15.3891 22.0406 15.0732V15.0732C21.4915 14.7574 21.091 14.2356 20.9278 13.6236C20.7646 13.0115 20.8521 12.3597 21.171 11.8124C21.3783 11.4503 21.6785 11.1502 22.0406 10.9428V10.9428C23.172 10.281 23.5598 8.83177 22.9101 7.69336V7.69336V7.68192Z"
          stroke="white" stroke-width="1.5" stroke-linecap="round" stroke-linejoin="round"/>
    <circle cx="12.1206" cy="13.0137" r="3.29519" stroke="white" stroke-width="1.5" stroke-linecap="round"
            stroke-linejoin="round"/>
</svg>
