<svg width="20" height="21" viewBox="0 0 20 21" fill="none" xmlns="http://www.w3.org/2000/svg">
    <path fill-rule="evenodd" clip-rule="evenodd"
          d="M10.2273 12.4833V8.63333H19.7727C19.8864 9.33333 20 9.91667 20 10.7333C20 16.6833 16.1364 21 10.2273 21C4.54545 21 0 16.3333 0 10.5C0 4.66667 4.54545 0 10.2273 0C12.9545 0 15.3409 1.05 17.0455 2.68333L14.0909 5.6C13.4091 4.9 12.1591 4.08333 10.2273 4.08333C6.81818 4.08333 4.09091 7 4.09091 10.5C4.09091 14 6.81818 16.9167 10.2273 16.9167C14.0909 16.9167 15.5682 14.1167 15.7955 12.4833H10.2273Z"
          fill="white"/>
</svg>
