<svg width="21" height="20" viewBox="0 0 21 20" fill="none" xmlns="http://www.w3.org/2000/svg">
    <path d="M2.12384 2.10723C3.4954 0.748331 5.31897 0 7.25882 0C9.19867 0 11.0227 0.748331 12.3943 2.10723C14.7517 4.44295 15.1461 7.99788 13.5779 10.7421L19.6154 16.7244C20.3717 17.4737 20.3717 18.6891 19.6154 19.4379C18.8591 20.1872 17.6329 20.1872 16.8767 19.4379L10.841 13.4584C9.76114 14.0671 8.53542 14.3911 7.25882 14.3911C5.31897 14.3911 3.4954 13.6428 2.12336 12.2839C-0.70793 9.47774 -0.707928 4.91287 2.12384 2.10723ZM3.26479 11.1525C4.3316 12.2095 5.75016 12.7917 7.25882 12.7917C8.76748 12.7917 10.186 12.2095 11.2529 11.1525C13.4553 8.97037 13.4553 5.41976 11.2529 3.23813C10.186 2.18115 8.76748 1.5989 7.25882 1.5989C5.75016 1.5989 4.3316 2.18115 3.26479 3.23813C1.06284 5.42024 1.06284 8.97037 3.26479 11.1525Z"
          fill="#BDBDBD"/>
</svg>
