<svg width="27" height="25" viewBox="0 0 27 25" fill="none" xmlns="http://www.w3.org/2000/svg">
    <path d="M22.9958 13.9988C22.9904 13.9988 22.985 14 22.9797 14C17.8344 14 13.6464 9.81323 13.6464 4.66675C13.6464 3.25195 13.9718 1.91455 14.5385 0.711914C14.245 0.684082 13.9477 0.666748 13.6464 0.666748C8.49186 0.666748 4.31315 4.84521 4.31315 10V13.7173C4.31315 16.356 3.15714 18.8467 1.12907 20.5613C0.45304 21.1387 0.152991 22.0586 0.395667 22.9561C0.678382 24 1.71036 24.6667 2.79313 24.6667H24.4931C25.6291 24.6667 26.6999 23.9307 26.9303 22.8174C27.109 21.9561 26.8024 21.0959 26.1344 20.5347C24.1957 18.9094 23.0744 16.5212 22.9958 13.9988Z"
          fill="#BDBDBD"/>
</svg>
