<svg width="10" height="17" viewBox="0 0 10 17" fill="none" xmlns="http://www.w3.org/2000/svg">
<path d="M10 14.1666C10 15.2405 9.12944 16.1111 8.05554 16.1111C6.98165 16.1111 6.11108 15.2405 6.11108 14.1666C6.11108 13.0927 6.98165 12.2222 8.05554 12.2222C9.12944 12.2222 10 13.0927 10 14.1666Z" fill="#333333"/>
<path d="M10 8.05579C10 9.12968 9.12944 10.0002 8.05554 10.0002C6.98165 10.0002 6.11108 9.12968 6.11108 8.05579C6.11108 6.98189 6.98165 6.11133 8.05554 6.11133C9.12944 6.11133 10 6.98189 10 8.05579Z" fill="#333333"/>
<path d="M10 1.94446C10 3.01835 9.12944 3.88892 8.05554 3.88892C6.98165 3.88892 6.11108 3.01835 6.11108 1.94446C6.11108 0.870564 6.98165 0 8.05554 0C9.12944 0 10 0.870564 10 1.94446Z" fill="#333333"/>
<path d="M3.88867 14.1666C3.88867 15.2405 3.01811 16.1111 1.94421 16.1111C0.870319 16.1111 -0.000244141 15.2405 -0.000244141 14.1666C-0.000244141 13.0927 0.870319 12.2222 1.94421 12.2222C3.01811 12.2222 3.88867 13.0927 3.88867 14.1666Z" fill="#333333"/>
<path d="M3.88867 8.05579C3.88867 9.12968 3.01811 10.0002 1.94421 10.0002C0.870319 10.0002 -0.000244141 9.12968 -0.000244141 8.05579C-0.000244141 6.98189 0.870319 6.11133 1.94421 6.11133C3.01811 6.11133 3.88867 6.98189 3.88867 8.05579Z" fill="#333333"/>
<path d="M3.88867 1.94446C3.88867 3.01835 3.01811 3.88892 1.94421 3.88892C0.870319 3.88892 -0.000244141 3.01835 -0.000244141 1.94446C-0.000244141 0.870564 0.870319 0 1.94421 0C3.01811 0 3.88867 0.870564 3.88867 1.94446Z" fill="#333333"/>
</svg>
