<svg width="20" height="19" viewBox="0 0 20 19" fill="none" xmlns="http://www.w3.org/2000/svg">
<path opacity="0.4" d="M2.723 18.1665C2.71 18.1665 2.698 18.1665 2.684 18.1655C2.369 18.1495 2.06 18.0815 1.766 17.9625C0.319002 17.3745 -0.378998 15.7215 0.208002 14.2755L7.529 1.44951C7.781 0.993514 8.163 0.611514 8.629 0.353514C9.994 -0.402486 11.72 0.094514 12.475 1.45851L19.748 14.1865C19.91 14.5675 19.979 14.8775 19.996 15.1935C20.035 15.9495 19.777 16.6745 19.271 17.2355C18.765 17.7965 18.07 18.1275 17.315 18.1655L2.795 18.1665H2.723Z" fill="#FF5753"/>
<path fill-rule="evenodd" clip-rule="evenodd" d="M9.12402 7.02002C9.12402 6.53802 9.51702 6.14502 9.99902 6.14502C10.481 6.14502 10.874 6.53802 10.874 7.02002V9.84802C10.874 10.331 10.481 10.723 9.99902 10.723C9.51702 10.723 9.12402 10.331 9.12402 9.84802V7.02002ZM9.12402 13.2691C9.12402 12.7841 9.51702 12.3891 9.99902 12.3891C10.481 12.3891 10.874 12.7791 10.874 13.2581C10.874 13.7511 10.481 14.1441 9.99902 14.1441C9.51702 14.1441 9.12402 13.7511 9.12402 13.2691Z" fill="#FF5753"/>
</svg>
