<svg width="17" height="14" viewBox="0 0 17 14" fill="none" xmlns="http://www.w3.org/2000/svg">
<path opacity="0.4" fill-rule="evenodd" clip-rule="evenodd" d="M13.1138 2.0383C14.5366 3.13648 15.748 4.74537 16.6179 6.75749C16.6829 6.91022 16.6829 7.08881 16.6179 7.23426C14.878 11.2585 11.7805 13.6666 8.33333 13.6666H8.3252C4.88618 13.6666 1.78862 11.2585 0.0487805 7.23426C-0.0162602 7.08881 -0.0162602 6.91022 0.0487805 6.75749C1.78862 2.73244 4.88618 0.333252 8.3252 0.333252H8.33333C10.0569 0.333252 11.6911 0.931232 13.1138 2.0383ZM5.08128 6.99994C5.08128 8.77772 6.53657 10.2242 8.33332 10.2242C10.1219 10.2242 11.5772 8.77772 11.5772 6.99994C11.5772 5.21408 10.1219 3.76761 8.33332 3.76761C6.53657 3.76761 5.08128 5.21408 5.08128 6.99994Z" fill="#333333"/>
<path d="M10.3587 6.99725C10.3587 8.10432 9.4481 9.00937 8.33428 9.00937C7.21233 9.00937 6.30176 8.10432 6.30176 6.99725C6.30176 6.85988 6.31802 6.73139 6.34241 6.6021H6.38306C7.2855 6.6021 8.0172 5.89099 8.04973 5.00129C8.13916 4.98594 8.23672 4.97705 8.33428 4.97705C9.4481 4.97705 10.3587 5.8821 10.3587 6.99725Z" fill="#333333"/>
</svg>
